# Blender v2.69 (sub 0) OBJ File: ''
# www.blender.org
mtllib untitled.mtl
o Cube
v 0.200000 -0.200000 -3.200000
v 0.200000 -0.200000 -2.800000
v -0.200000 -0.200000 -2.800000
v -0.200000 -0.200000 -3.200000
v 0.200000 0.200000 -3.200000
v 0.200000 0.200000 -2.800000
v -0.200000 0.200000 -2.800000
v -0.200000 0.200000 -3.200000
vt 0.666667 0.000000
vt 1.000000 0.000000
vt 0.666667 0.333333
vt 0.000000 0.666667
vt 0.000000 0.333333
vt 0.333333 0.666667
vt 0.333333 0.333333
vt 0.000000 0.000000
vt 1.000000 0.333333
vt 0.666667 0.666667
vt 0.333333 0.333334
vt 0.333333 0.000000
vt 1.000000 0.666667
vn 0.000000 -1.000000 0.000000
vn 0.000000 1.000000 0.000000
vn 1.000000 -0.000000 0.000000
vn 0.000000 0.000000 1.000000
vn -1.000000 -0.000000 -0.000000
vn 0.000001 0.000001 -1.000000
vn 1.000000 0.000000 0.000001
vn -0.000001 0.000001 1.000000
vn 0.000000 0.000000 -1.000000
usemtl Material
s off
f 1/1/1 2/2/1 4/3/1
f 5/4/2 8/5/2 6/6/2
f 1/3/3 5/7/3 2/1/3
f 2/5/4 6/8/4 3/7/4
f 3/3/5 7/9/5 4/10/5
f 5/7/6 1/3/6 8/6/6
f 2/2/1 3/9/1 4/3/1
f 8/5/2 7/11/2 6/6/2
f 5/7/7 6/12/7 2/1/7
f 6/8/8 7/12/8 3/7/8
f 7/9/5 8/13/5 4/10/5
f 1/3/9 4/10/9 8/6/9
